<?xml version="1.0" encoding="UTF-8" standalone="no"?>
<svg
   xmlns:dc="http://purl.org/dc/elements/1.1/"
   xmlns:cc="http://creativecommons.org/ns#"
   xmlns:rdf="http://www.w3.org/1999/02/22-rdf-syntax-ns#"
   xmlns:svg="http://www.w3.org/2000/svg"
   xmlns="http://www.w3.org/2000/svg"
   xmlns:sodipodi="http://sodipodi.sourceforge.net/DTD/sodipodi-0.dtd"
   xmlns:inkscape="http://www.inkscape.org/namespaces/inkscape"
   viewBox="0 0 512 512"
   version="1.1"
   id="svg4"
   sodipodi:docname="arrow-alt-circle-right.svg"
   inkscape:version="1.0.1 (3bc2e813f5, 2020-09-07)">
  <metadata
     id="metadata10">
    <rdf:RDF>
      <cc:Work
         rdf:about="">
        <dc:format>image/svg+xml</dc:format>
        <dc:type
           rdf:resource="http://purl.org/dc/dcmitype/StillImage" />
      </cc:Work>
    </rdf:RDF>
  </metadata>
  <defs
     id="defs8" />
  <sodipodi:namedview
     pagecolor="#ffffff"
     bordercolor="#666666"
     borderopacity="1"
     objecttolerance="10"
     gridtolerance="10"
     guidetolerance="10"
     inkscape:pageopacity="0"
     inkscape:pageshadow="2"
     inkscape:window-width="1920"
     inkscape:window-height="1017"
     id="namedview6"
     showgrid="false"
     inkscape:zoom="1.6601562"
     inkscape:cx="256"
     inkscape:cy="256"
     inkscape:window-x="-8"
     inkscape:window-y="-8"
     inkscape:window-maximized="1"
     inkscape:current-layer="svg4" />
  <path
     d="M504 256C504 119 393 8 256 8S8 119 8 256s111 248 248 248 248-111 248-248zm-448 0c0-110.5 89.5-200 200-200s200 89.5 200 200-89.5 200-200 200S56 366.5 56 256zm72 20v-40c0-6.6 5.4-12 12-12h116v-67c0-10.7 12.9-16 20.5-8.5l99 99c4.7 4.7 4.7 12.3 0 17l-99 99c-7.6 7.6-20.5 2.2-20.5-8.5v-67H140c-6.6 0-12-5.4-12-12z"
     id="path2" />
  <path
     style="fill:#ffffff;stroke-width:0.602353"
     d="m 239.13412,503.1895 c -35.78892,-3.18755 -64.1905,-10.95991 -93.43336,-25.56891 -11.65914,-5.82462 -17.78782,-9.40473 -28.42221,-16.60304 C 62.130215,423.68823 24.333503,365.86515 12.402874,300.57412 9.3899127,284.08551 8.7536534,276.3138 8.7536534,256 c 0,-20.3138 0.6362593,-28.08551 3.6492206,-44.57412 C 20.836986,165.26973 41.840109,123.32112 74.29582,87.809813 93.61096,66.676224 118.9491,47.686051 145.50229,34.442723 171.24788,21.602184 195.65387,14.21893 225.88235,10.126302 239.28359,8.3119117 270.8119,8.1461948 284.00941,9.8207787 c 17.2271,2.1858833 36.36108,6.4398243 50.59765,11.2490653 22.04404,7.446675 47.13505,20.288523 65.44478,33.495339 52.58498,37.929569 87.91226,93.602017 99.53688,156.860697 3.01534,16.4088 3.65763,24.23614 3.65763,44.57412 0,20.33798 -0.64229,28.16532 -3.65763,44.57412 -8.51742,46.35 -29.41075,88.08498 -61.88454,123.61607 -11.86663,12.98383 -27.81821,26.64748 -43.163,36.97216 -33.44354,22.50232 -69.54925,35.90516 -110.23059,40.91882 -7.75231,0.95541 -38.44033,1.7083 -45.17647,1.10833 z m 45.47764,-48.90472 c 22.1708,-3.48384 39.28807,-8.71038 58.42824,-17.84031 58.08216,-27.7054 100.06237,-83.68423 110.476,-147.31506 1.92244,-11.74674 2.5321,-19.72349 2.5321,-33.12941 0,-13.40039 -0.60904,-21.37363 -2.53059,-33.12941 -9.6898,-59.2807 -45.9723,-111.0883 -99.0328,-141.40842 -23.25359,-13.287695 -51.22655,-22.06462 -79.12265,-24.82589 -8.17037,-0.808736 -30.6459,-0.790805 -38.9845,0.0311 -57.9664,5.713545 -109.85207,35.858108 -144.033824,83.68086 -19.787903,27.68469 -32.23022,61.33687 -35.736356,96.65451 -0.841069,8.47217 -0.844139,29.47517 -0.0055,37.9945 8.396802,85.30443 68.56673,154.99922 151.5111,175.49521 17.63836,4.35853 28.15862,5.44173 50.59765,5.20968 14.55054,-0.15048 19.59594,-0.42657 25.90117,-1.41736 z"
     id="path12" />
  <path
     style="fill:#ffffff;stroke-width:0.602353"
     d="m 264.21444,365.95061 c -2.86847,-1.02258 -5.63667,-3.55625 -6.93333,-6.3459 -0.86241,-1.85541 -1.00127,-6.27991 -1.15789,-36.89412 l -0.17795,-34.78588 -58.25028,-0.004 c -38.78876,-0.002 -59.01046,-0.21421 -60.52557,-0.63496 -2.96099,-0.82227 -6.3653,-3.84891 -7.74487,-6.88567 -0.99685,-2.19431 -1.09692,-4.42023 -1.09692,-24.40046 0,-19.98023 0.10007,-22.20615 1.09692,-24.40046 1.37957,-3.03676 4.78388,-6.0634 7.74487,-6.88567 1.51511,-0.42075 21.73681,-0.63298 60.52557,-0.63521 l 58.25028,-0.003 0.17795,-34.78588 c 0.19777,-38.66023 0.0458,-37.2116 4.29679,-40.94406 3.86451,-3.39308 9.20339,-3.93243 13.3494,-1.34862 0.99388,0.6194 24.75931,24.11099 52.81206,52.20355 46.39537,46.46121 51.06789,51.3174 51.70081,53.73328 0.74268,2.83484 0.40062,5.98378 -0.91974,8.4668 -0.44651,0.83969 -23.93762,24.61271 -52.20248,52.82895 -44.36433,44.28803 -51.72007,51.39076 -53.80006,51.94958 -3.08547,0.82897 -4.28756,0.79056 -7.14556,-0.22828 z"
     id="path14" />
</svg>
