<?xml version="1.0" encoding="UTF-8" standalone="no"?>
<svg
   xmlns:dc="http://purl.org/dc/elements/1.1/"
   xmlns:cc="http://creativecommons.org/ns#"
   xmlns:rdf="http://www.w3.org/1999/02/22-rdf-syntax-ns#"
   xmlns:svg="http://www.w3.org/2000/svg"
   xmlns="http://www.w3.org/2000/svg"
   xmlns:sodipodi="http://sodipodi.sourceforge.net/DTD/sodipodi-0.dtd"
   xmlns:inkscape="http://www.inkscape.org/namespaces/inkscape"
   viewBox="0 0 512 512"
   version="1.1"
   id="svg4"
   sodipodi:docname="arrow-alt-circle-left.svg"
   inkscape:version="1.0.1 (3bc2e813f5, 2020-09-07)">
  <metadata
     id="metadata10">
    <rdf:RDF>
      <cc:Work
         rdf:about="">
        <dc:format>image/svg+xml</dc:format>
        <dc:type
           rdf:resource="http://purl.org/dc/dcmitype/StillImage" />
      </cc:Work>
    </rdf:RDF>
  </metadata>
  <defs
     id="defs8" />
  <sodipodi:namedview
     pagecolor="#ffffff"
     bordercolor="#666666"
     borderopacity="1"
     objecttolerance="10"
     gridtolerance="10"
     guidetolerance="10"
     inkscape:pageopacity="0"
     inkscape:pageshadow="2"
     inkscape:window-width="1920"
     inkscape:window-height="1017"
     id="namedview6"
     showgrid="false"
     inkscape:zoom="1.6601562"
     inkscape:cx="256"
     inkscape:cy="256"
     inkscape:window-x="-8"
     inkscape:window-y="-8"
     inkscape:window-maximized="1"
     inkscape:current-layer="svg4" />
  <path
     d="M8 256c0 137 111 248 248 248s248-111 248-248S393 8 256 8 8 119 8 256zm448 0c0 110.5-89.5 200-200 200S56 366.5 56 256 145.5 56 256 56s200 89.5 200 200zm-72-20v40c0 6.6-5.4 12-12 12H256v67c0 10.7-12.9 16-20.5 8.5l-99-99c-4.7-4.7-4.7-12.3 0-17l99-99c7.6-7.6 20.5-2.2 20.5 8.5v67h116c6.6 0 12 5.4 12 12z"
     id="path2" />
  <path
     style="fill:#ffffff;stroke-width:0.602353"
     d="m 239.13412,503.1895 c -35.78892,-3.18755 -64.1905,-10.95991 -93.43336,-25.56891 -11.65914,-5.82462 -17.78782,-9.40473 -28.42221,-16.60304 C 62.130215,423.68823 24.333503,365.86515 12.402874,300.57412 9.3899127,284.08551 8.7536534,276.3138 8.7536534,256 c 0,-20.3138 0.6362593,-28.08551 3.6492206,-44.57412 C 20.836986,165.26973 41.840109,123.32112 74.29582,87.809813 93.61096,66.676224 118.9491,47.686051 145.50229,34.442723 171.24788,21.602184 195.65387,14.21893 225.88235,10.126302 239.28359,8.3119117 270.8119,8.1461948 284.00941,9.8207787 c 17.2271,2.1858833 36.36108,6.4398243 50.59765,11.2490653 22.04404,7.446675 47.13505,20.288523 65.44478,33.495339 52.58498,37.929569 87.91226,93.602017 99.53688,156.860697 3.01534,16.4088 3.65763,24.23614 3.65763,44.57412 0,20.33798 -0.64229,28.16532 -3.65763,44.57412 -8.51742,46.35 -29.41075,88.08498 -61.88454,123.61607 -11.86663,12.98383 -27.81821,26.64748 -43.163,36.97216 -33.44354,22.50232 -69.54925,35.90516 -110.23059,40.91882 -7.75231,0.95541 -38.44033,1.7083 -45.17647,1.10833 z m 45.47764,-48.90472 c 22.1708,-3.48384 39.28807,-8.71038 58.42824,-17.84031 58.08216,-27.7054 100.06237,-83.68423 110.476,-147.31506 1.92244,-11.74674 2.5321,-19.72349 2.5321,-33.12941 0,-13.40039 -0.60904,-21.37363 -2.53059,-33.12941 -9.6898,-59.2807 -45.9723,-111.0883 -99.0328,-141.40842 -23.25359,-13.287695 -51.22655,-22.06462 -79.12265,-24.82589 -8.17037,-0.808736 -30.6459,-0.790805 -38.9845,0.0311 -57.9664,5.713545 -109.85207,35.858108 -144.033824,83.68086 -19.787903,27.68469 -32.23022,61.33687 -35.736356,96.65451 -0.841069,8.47217 -0.844139,29.47517 -0.0055,37.9945 8.396802,85.30443 68.56673,154.99922 151.5111,175.49521 17.63836,4.35853 28.15862,5.44173 50.59765,5.20968 14.55054,-0.15048 19.59594,-0.42657 25.90117,-1.41736 z"
     id="path12" />
  <path
     style="fill:#ffffff;stroke-width:0.602353"
     d="m 240.33882,366.13431 c -1.66479,-0.46589 -12.91783,-11.38204 -53.50021,-51.89862 -28.26559,-28.21974 -51.7567,-51.99564 -52.20248,-52.83533 -1.31928,-2.48506 -1.66077,-5.6332 -0.91843,-8.4668 0.63291,-2.41589 5.33254,-7.30029 52.00199,-54.04656 28.21841,-28.26486 51.99321,-51.75598 52.83289,-52.20248 4.19032,-2.22822 9.34674,-1.57084 13.02741,1.66083 4.25104,3.73246 4.09902,2.28383 4.29679,40.94406 l 0.17795,34.78588 h 58.25426 c 35.94585,0 59.03663,0.22439 60.29727,0.58593 3.37835,0.9689 6.01599,3.1593 7.59696,6.30881 l 1.4956,2.97945 V 256 278.05052 l -1.4956,2.97945 c -1.58097,3.14951 -4.21861,5.33991 -7.59696,6.30881 -1.26064,0.36154 -24.35142,0.58593 -60.29727,0.58593 h -58.25426 l -0.17795,34.78588 c -0.19773,38.65156 -0.047,37.2127 -4.28824,40.93655 -3.2932,2.89147 -6.93101,3.69574 -11.24972,2.48717 z"
     id="path14" />
</svg>
