<?xml version="1.0" encoding="UTF-8" standalone="no"?>
<svg
   xmlns:dc="http://purl.org/dc/elements/1.1/"
   xmlns:cc="http://creativecommons.org/ns#"
   xmlns:rdf="http://www.w3.org/1999/02/22-rdf-syntax-ns#"
   xmlns:svg="http://www.w3.org/2000/svg"
   xmlns="http://www.w3.org/2000/svg"
   xmlns:sodipodi="http://sodipodi.sourceforge.net/DTD/sodipodi-0.dtd"
   xmlns:inkscape="http://www.inkscape.org/namespaces/inkscape"
   viewBox="0 0 448 512"
   version="1.1"
   id="svg4"
   sodipodi:docname="book.svg"
   inkscape:version="1.0.1 (3bc2e813f5, 2020-09-07)">
  <metadata
     id="metadata10">
    <rdf:RDF>
      <cc:Work
         rdf:about="">
        <dc:format>image/svg+xml</dc:format>
        <dc:type
           rdf:resource="http://purl.org/dc/dcmitype/StillImage" />
      </cc:Work>
    </rdf:RDF>
  </metadata>
  <defs
     id="defs8" />
  <sodipodi:namedview
     pagecolor="#ffffff"
     bordercolor="#666666"
     borderopacity="1"
     objecttolerance="10"
     gridtolerance="10"
     guidetolerance="10"
     inkscape:pageopacity="0"
     inkscape:pageshadow="2"
     inkscape:window-width="1920"
     inkscape:window-height="1017"
     id="namedview6"
     showgrid="false"
     inkscape:zoom="1.6601562"
     inkscape:cx="224"
     inkscape:cy="256"
     inkscape:window-x="-8"
     inkscape:window-y="-8"
     inkscape:window-maximized="1"
     inkscape:current-layer="svg4" />
  <path
     d="M448 360V24c0-13.3-10.7-24-24-24H96C43 0 0 43 0 96v320c0 53 43 96 96 96h328c13.3 0 24-10.7 24-24v-16c0-7.5-3.5-14.3-8.9-18.7-4.2-15.4-4.2-59.3 0-74.7 5.4-4.3 8.9-11.1 8.9-18.6zM128 134c0-3.3 2.7-6 6-6h212c3.3 0 6 2.7 6 6v20c0 3.3-2.7 6-6 6H134c-3.3 0-6-2.7-6-6v-20zm0 64c0-3.3 2.7-6 6-6h212c3.3 0 6 2.7 6 6v20c0 3.3-2.7 6-6 6H134c-3.3 0-6-2.7-6-6v-20zm253.4 250H96c-17.7 0-32-14.3-32-32 0-17.6 14.4-32 32-32h285.4c-1.9 17.1-1.9 46.9 0 64z"
     id="path2" />
  <path
     style="fill:#ffffff;stroke-width:0.602353"
     d="M 89.675294,511.38533 C 46.613547,508.43893 11.465924,477.66692 2.1719909,434.77553 L 0.82823529,428.57412 V 256 c 0,-166.572978 0.0393759,-172.762636 1.13232701,-177.995294 C 10.188227,38.613592 39.944185,9.3297676 79.501294,1.6943017 L 86.362353,0.36995355 253.81647,0.1636855 c 99.4824,-0.1225413 169.32608,0.0184531 172.06585,0.34735224 8.77657,1.05359256 15.64387,5.76524976 19.33705,13.26716626 l 1.95239,3.965876 v 174.09266 174.09267 l -1.88602,3.9153 c -1.03731,2.15341 -2.97314,5.05854 -4.30184,6.45586 -2.69793,2.83725 -3.20331,4.75518 -4.44155,16.85569 -0.85953,8.39962 -0.85953,37.13727 0,45.53689 1.26351,12.34742 1.72716,14.04673 4.76622,17.46856 1.4992,1.68801 3.43172,4.57417 4.2945,6.4137 1.55064,3.3061 1.56869,3.5075 1.56869,17.49988 0,14.09424 -0.007,14.17015 -1.61434,17.59959 -3.48449,7.4344 -10.73191,12.69426 -18.95027,13.75327 -4.90171,0.63164 -327.674209,0.59062 -336.931856,-0.0428 z M 381.56917,446.11768 c -1.37487,-7.3287 -1.39517,-52.0398 -0.0273,-60.16003 l 0.3805,-2.25883 -144.76824,0.009 c -159.562437,0.01 -148.516363,-0.25579 -156.156884,3.75478 -4.910141,2.57736 -11.145156,8.8237 -13.536642,13.5612 -5.292213,10.48382 -4.708683,23.22213 1.492131,32.57273 4.455177,6.71824 11.659902,11.89235 19.052399,13.68256 2.528437,0.61231 32.820756,0.77958 148.560736,0.82036 l 145.38466,0.0512 z M 349.32278,223.45509 c 2.59026,-1.38628 2.9784,-3.45894 2.9784,-15.90508 v -11.7663 l -1.75762,-1.96715 -1.75761,-1.96715 -108.02121,-0.15115 c -107.12237,-0.14989 -108.03762,-0.14111 -109.99387,1.0544 -1.08496,0.66304 -2.23696,1.90071 -2.56,2.75036 -0.32304,0.84965 -0.58734,6.55522 -0.58734,12.67905 0,11.65058 0.40581,13.8125 2.86116,15.24262 1.475,0.8591 217.23363,0.88908 218.83809,0.0304 z m -0.31771,-63.94883 c 2.95528,-1.34652 3.29611,-2.98806 3.29611,-15.87541 v -11.83603 l -2.048,-2.048 -2.048,-2.048 H 240.03209 131.859 l -1.96714,1.75645 -1.96715,1.75645 -0.18526,12.4244 -0.18526,12.42442 2.08267,2.08267 2.08267,2.08267 H 239.5726 c 82.33625,0 108.22674,-0.17025 109.43247,-0.71962 z"
     id="path12" />
</svg>
