<?xml version="1.0" encoding="UTF-8" standalone="no"?>
<svg
   xmlns:dc="http://purl.org/dc/elements/1.1/"
   xmlns:cc="http://creativecommons.org/ns#"
   xmlns:rdf="http://www.w3.org/1999/02/22-rdf-syntax-ns#"
   xmlns:svg="http://www.w3.org/2000/svg"
   xmlns="http://www.w3.org/2000/svg"
   xmlns:sodipodi="http://sodipodi.sourceforge.net/DTD/sodipodi-0.dtd"
   xmlns:inkscape="http://www.inkscape.org/namespaces/inkscape"
   viewBox="0 0 576 512"
   version="1.1"
   id="svg4"
   sodipodi:docname="newspaper.svg"
   inkscape:version="1.0.1 (3bc2e813f5, 2020-09-07)">
  <metadata
     id="metadata10">
    <rdf:RDF>
      <cc:Work
         rdf:about="">
        <dc:format>image/svg+xml</dc:format>
        <dc:type
           rdf:resource="http://purl.org/dc/dcmitype/StillImage" />
      </cc:Work>
    </rdf:RDF>
  </metadata>
  <defs
     id="defs8" />
  <sodipodi:namedview
     pagecolor="#ffffff"
     bordercolor="#666666"
     borderopacity="1"
     objecttolerance="10"
     gridtolerance="10"
     guidetolerance="10"
     inkscape:pageopacity="0"
     inkscape:pageshadow="2"
     inkscape:window-width="1920"
     inkscape:window-height="1017"
     id="namedview6"
     showgrid="false"
     inkscape:zoom="1.6601562"
     inkscape:cx="288"
     inkscape:cy="256"
     inkscape:window-x="-8"
     inkscape:window-y="-8"
     inkscape:window-maximized="1"
     inkscape:current-layer="svg4" />
  <path
     d="M552 64H88c-13.255 0-24 10.745-24 24v8H24c-13.255 0-24 10.745-24 24v272c0 30.928 25.072 56 56 56h472c26.51 0 48-21.49 48-48V88c0-13.255-10.745-24-24-24zM56 400a8 8 0 0 1-8-8V144h16v248a8 8 0 0 1-8 8zm236-16H140c-6.627 0-12-5.373-12-12v-8c0-6.627 5.373-12 12-12h152c6.627 0 12 5.373 12 12v8c0 6.627-5.373 12-12 12zm208 0H348c-6.627 0-12-5.373-12-12v-8c0-6.627 5.373-12 12-12h152c6.627 0 12 5.373 12 12v8c0 6.627-5.373 12-12 12zm-208-96H140c-6.627 0-12-5.373-12-12v-8c0-6.627 5.373-12 12-12h152c6.627 0 12 5.373 12 12v8c0 6.627-5.373 12-12 12zm208 0H348c-6.627 0-12-5.373-12-12v-8c0-6.627 5.373-12 12-12h152c6.627 0 12 5.373 12 12v8c0 6.627-5.373 12-12 12zm0-96H140c-6.627 0-12-5.373-12-12v-40c0-6.627 5.373-12 12-12h360c6.627 0 12 5.373 12 12v40c0 6.627-5.373 12-12 12z"
     id="path2" />
  <path
     style="fill:#ffffff;stroke-width:0.602353"
     d="m 45.319817,446.62004 c -5.848453,-1.27219 -9.537513,-2.59406 -14.805443,-5.3051 C 15.982076,433.83614 5.9627333,420.96992 1.7239483,404.34406 L 0.37647059,399.05882 V 257.20471 115.35059 L 1.7755131,111.8858 c 2.7964614,-6.92555 8.0522685,-11.908294 15.0460229,-14.264319 3.467987,-1.168281 5.051912,-1.24501 25.700639,-1.24501 h 22.004884 v -6.339755 c 0,-4.731948 0.29658,-7.183582 1.169456,-9.66706 2.411249,-6.860435 7.757378,-12.188619 14.667692,-14.618447 l 3.739322,-1.314835 237.025881,0.158284 237.02588,0.158283 3.96898,1.942167 c 7.12978,3.488866 12.00178,10.243374 13.25251,18.373179 0.36577,2.377513 0.5193,62.747623 0.41405,162.799953 l -0.1673,159.02117 -1.3504,4.74543 c -4.74739,16.68285 -16.20858,28.56556 -32.98372,34.1968 l -4.21647,1.41542 L 293.12,447.35199 C 86.870636,447.4407 48.572458,447.32759 45.319817,446.62004 Z m 15.131162,-47.65595 c 0.905451,-0.45605 2.125215,-1.70554 2.710588,-2.77664 1.006411,-1.8415 1.072815,-8.75586 1.220524,-127.08627 l 0.156214,-125.13883 h -8.438566 -8.438563 v 124.70641 c 0,103.88333 0.136988,125.03006 0.820396,126.64471 1.991212,4.70452 6.90283,6.20254 11.969407,3.65062 z M 298.43114,382.57052 c 1.26465,-0.78622 3.02653,-2.52785 3.91529,-3.8703 1.5561,-2.35046 1.61592,-2.74711 1.61592,-10.71475 0,-8.22121 -0.0115,-8.2903 -1.80706,-10.8411 -0.99388,-1.41195 -3.00169,-3.19787 -4.46179,-3.96872 l -2.65475,-1.40153 h -78.83284 c -85.55978,0 -81.08379,-0.16856 -84.73833,3.1911 -2.83329,2.60468 -3.66587,5.55309 -3.68023,13.03284 -0.0112,5.78583 0.18932,7.30589 1.25314,9.50343 1.35937,2.80809 4.23727,5.36212 6.97682,6.19166 0.93259,0.28239 37.33987,0.46696 80.90504,0.41014 L 296.13176,384 Z m 206.27646,0.79838 c 2.83984,-1.18657 4.77254,-2.99456 6.22161,-5.8202 0.93995,-1.83288 1.14608,-3.54349 1.14608,-9.51105 0,-7.83905 -0.68377,-10.2456 -3.7143,-13.07243 -3.60045,-3.35844 0.84197,-3.1911 -84.71749,-3.1911 h -78.83284 l -2.65475,1.40206 c -1.73793,0.91786 -3.27461,2.40292 -4.44968,4.30023 -1.62142,2.61798 -1.81674,3.48725 -2.02051,8.99186 -0.12811,3.46088 0.0728,7.20174 0.46499,8.65827 0.86524,3.21325 3.81072,6.62083 6.95942,8.05126 2.29544,1.0428 6.28649,1.09757 80.89039,1.11015 69.48905,0.0117 78.73133,-0.0935 80.70708,-0.91905 z M 295.5871,287.64003 c 1.76775,-0.52496 3.76683,-1.69282 4.89762,-2.86117 3.06011,-3.16174 3.77881,-5.62868 3.77881,-12.9707 0,-7.58369 -1.08256,-10.52746 -5.02524,-13.66501 l -2.31464,-1.84197 -79.30418,-0.17302 c -43.61729,-0.0952 -80.19091,-0.014 -81.2747,0.1803 -2.56451,0.45982 -6.06321,3.56679 -7.44728,6.61343 -1.56457,3.44401 -1.56457,14.63692 0,18.08093 1.29435,2.84915 4.84896,6.15325 7.17003,6.66469 0.90498,0.19942 1.91648,0.45299 2.24777,0.5635 0.3313,0.11052 35.18092,0.22234 77.44362,0.24849 66.01153,0.0408 77.26223,-0.0774 79.82819,-0.83947 z m 210.76651,-1.22121 c 1.93075,-1.19585 3.40449,-2.72386 4.3572,-4.51764 1.34196,-2.52667 1.42688,-3.24511 1.25148,-10.5881 -0.17628,-7.37969 -0.29034,-8.03171 -1.8049,-10.31761 -0.97225,-1.46741 -2.66884,-2.94943 -4.25606,-3.71779 L 503.262,256 h -79.34441 c -78.03306,0 -79.38325,0.0198 -81.69493,1.19915 -2.63281,1.34315 -4.92387,4.1046 -5.95124,7.17309 -0.87292,2.60721 -0.88351,12.2662 -0.0169,15.4207 0.8432,3.06925 5.01093,7.16116 8.1472,7.99898 1.55254,0.41474 28.42065,0.59053 80.68102,0.52789 l 78.35333,-0.0939 z m -0.66028,-95.63343 c 1.29368,-0.73997 3.19109,-2.38671 4.21647,-3.65943 l 1.86432,-2.31403 0.17036,-24.02415 c 0.16291,-22.97405 0.11799,-24.1268 -1.02771,-26.37255 -1.49537,-2.93117 -4.24313,-5.28434 -7.15098,-6.12408 -1.56919,-0.45315 -56.53055,-0.59202 -185.14452,-0.46781 L 135.70843,128 l -2.56562,1.80706 c -1.41109,0.99388 -3.19631,3.00169 -3.96716,4.4618 -1.39574,2.64378 -1.40153,2.74894 -1.40153,25.46876 0,19.22914 0.14649,23.16462 0.93228,25.04527 1.24366,2.9765 3.0788,4.88341 5.99478,6.22923 2.32568,1.07337 8.77268,1.11213 185.5247,1.11533 l 183.1153,0.004 2.35215,-1.34539 z"
     id="path12" />
</svg>
