<?xml version="1.0" encoding="UTF-8" standalone="no"?>
<svg
   xmlns:dc="http://purl.org/dc/elements/1.1/"
   xmlns:cc="http://creativecommons.org/ns#"
   xmlns:rdf="http://www.w3.org/1999/02/22-rdf-syntax-ns#"
   xmlns:svg="http://www.w3.org/2000/svg"
   xmlns="http://www.w3.org/2000/svg"
   xmlns:sodipodi="http://sodipodi.sourceforge.net/DTD/sodipodi-0.dtd"
   xmlns:inkscape="http://www.inkscape.org/namespaces/inkscape"
   viewBox="0 0 384 512"
   version="1.1"
   id="svg4"
   sodipodi:docname="receipt.svg"
   inkscape:version="1.0.1 (3bc2e813f5, 2020-09-07)">
  <metadata
     id="metadata10">
    <rdf:RDF>
      <cc:Work
         rdf:about="">
        <dc:format>image/svg+xml</dc:format>
        <dc:type
           rdf:resource="http://purl.org/dc/dcmitype/StillImage" />
      </cc:Work>
    </rdf:RDF>
  </metadata>
  <defs
     id="defs8" />
  <sodipodi:namedview
     pagecolor="#ffffff"
     bordercolor="#666666"
     borderopacity="1"
     objecttolerance="10"
     gridtolerance="10"
     guidetolerance="10"
     inkscape:pageopacity="0"
     inkscape:pageshadow="2"
     inkscape:window-width="1920"
     inkscape:window-height="1017"
     id="namedview6"
     showgrid="false"
     inkscape:zoom="1.6601562"
     inkscape:cx="192"
     inkscape:cy="256"
     inkscape:window-x="-8"
     inkscape:window-y="-8"
     inkscape:window-maximized="1"
     inkscape:current-layer="svg4" />
  <path
     d="M358.4 3.2L320 48 265.6 3.2a15.9 15.9 0 0 0-19.2 0L192 48 137.6 3.2a15.9 15.9 0 0 0-19.2 0L64 48 25.6 3.2C15-4.7 0 2.8 0 16v480c0 13.2 15 20.7 25.6 12.8L64 464l54.4 44.8a15.9 15.9 0 0 0 19.2 0L192 464l54.4 44.8a15.9 15.9 0 0 0 19.2 0L320 464l38.4 44.8c10.5 7.9 25.6.4 25.6-12.8V16c0-13.2-15-20.7-25.6-12.8zM320 360c0 4.4-3.6 8-8 8H72c-4.4 0-8-3.6-8-8v-16c0-4.4 3.6-8 8-8h240c4.4 0 8 3.6 8 8v16zm0-96c0 4.4-3.6 8-8 8H72c-4.4 0-8-3.6-8-8v-16c0-4.4 3.6-8 8-8h240c4.4 0 8 3.6 8 8v16zm0-96c0 4.4-3.6 8-8 8H72c-4.4 0-8-3.6-8-8v-16c0-4.4 3.6-8 8-8h240c4.4 0 8 3.6 8 8v16z"
     id="path2" />
  <path
     style="fill:#ffffff;stroke-width:0.602353"
     d="M 12.301449,511.12788 C 8.3229648,510.07104 4.748782,507.41406 2.5742508,503.89686 L 0.75294118,500.95098 0.59941737,257.32723 C 0.49478168,91.28292 0.64386277,12.968276 1.0675788,11.394715 2.7090186,5.2988732 9.4593331,0.37943037 16.09664,0.44195021 22.785111,0.50495193 22.990982,0.68781586 44.084672,25.302144 54.568897,37.536239 63.407188,47.706817 63.725315,47.903431 64.043442,48.100044 76.568564,38.147772 91.558924,25.787271 106.54928,13.426769 120.11986,2.6600501 121.71578,1.8612278 c 3.76954,-1.88681407 8.90137,-1.93245556 12.58919,-0.1119658 1.41885,0.700418 14.9053,11.435722 29.96989,23.85623 15.06458,12.420509 27.55205,22.582743 27.74994,22.582743 0.19789,0 12.67421,-10.159821 27.72515,-22.577381 15.05094,-12.417559 28.52623,-23.1528629 29.94508,-23.8562299 3.41535,-1.69308381 8.54554,-1.75199423 12.17791,-0.1398399 1.53774,0.6824945 14.63806,11.0319688 30.27633,23.9187978 15.16115,12.493665 27.8218,22.557494 28.13478,22.364063 0.31298,-0.193432 9.14705,-10.361406 19.63128,-22.595501 21.09369,-24.61432814 21.29956,-24.79719207 27.98803,-24.86019379 6.59581,-0.062129 13.3341,4.81481739 15.01505,10.86738079 0.87101,3.136241 0.87101,486.245099 0,489.381339 -1.68018,6.04981 -8.27658,10.82745 -14.94925,10.82745 -6.74951,0 -6.89076,-0.12497 -28.05383,-24.82026 -10.48423,-12.2341 -19.3183,-22.40207 -19.63128,-22.5955 -0.31298,-0.19344 -12.97363,9.87039 -28.13478,22.36406 -15.63827,12.88682 -28.73859,23.2363 -30.27633,23.9188 -3.63237,1.61215 -8.76256,1.55324 -12.17791,-0.13984 -1.41885,-0.70337 -14.89414,-11.43867 -29.94508,-23.85623 -15.05094,-12.41756 -27.52726,-22.57739 -27.72515,-22.57739 -0.19789,0 -12.68536,10.16224 -27.74994,22.58275 -15.06459,12.42051 -28.55104,23.15581 -29.96989,23.85623 -3.68747,1.82031 -8.81952,1.77481 -12.58919,-0.11163 -1.59592,-0.79862 -15.166,-11.56565 -30.155742,-23.92672 -14.989739,-12.36108 -27.514868,-22.31351 -27.833609,-22.11651 -0.318741,0.19699 -9.148824,10.35772 -19.622407,22.5794 -20.104189,23.45967 -20.773429,24.08855 -26.485198,24.88789 -1.325177,0.18545 -3.717996,-0.0104 -5.317375,-0.43529 z M 316.57272,366.8175 c 3.21104,-1.95772 3.72876,-4.06605 3.7262,-15.17462 -0.002,-10.77738 -0.44642,-12.41038 -4.00838,-14.74427 -1.58505,-1.03857 -7.106,-1.08685 -124.29054,-1.08685 -117.184542,0 -122.705486,0.0483 -124.290542,1.08685 -3.56196,2.33389 -4.005906,3.96689 -4.008382,14.74427 -0.0024,11.10857 0.515163,13.2169 3.726204,15.17462 1.982632,1.20877 2.686482,1.21564 124.57272,1.21564 121.88624,0 122.59009,-0.007 124.57272,-1.21564 z m -0.52516,-95.65463 c 3.71991,-1.99501 4.25362,-3.8975 4.25362,-15.16287 0,-11.26537 -0.53371,-13.16786 -4.25362,-15.16287 -1.96827,-1.0556 -7.04678,-1.10066 -124.04756,-1.10066 -117.000782,0 -122.079286,0.0451 -124.047565,1.10066 -3.719909,1.99501 -4.253611,3.8975 -4.253611,15.16287 0,11.26537 0.533702,13.16786 4.253611,15.16287 1.968279,1.0556 7.046783,1.10066 124.047565,1.10066 117.00078,0 122.07929,-0.0451 124.04756,-1.10066 z m 0.24305,-96.06148 c 3.5619,-2.33394 4.00584,-3.96694 4.00831,-14.74427 0.002,-11.10857 -0.51516,-13.2169 -3.7262,-15.17462 -1.98263,-1.20877 -2.68648,-1.21564 -124.57272,-1.21564 -121.886238,0 -122.590088,0.007 -124.57272,1.21564 -3.202584,1.95257 -3.728456,4.07581 -3.728456,15.05395 0,10.13101 0.325475,11.71367 2.885373,14.03035 0.660907,0.59811 1.976187,1.32092 2.922845,1.60624 0.946658,0.28532 56.487028,0.47296 123.423048,0.41698 116.1918,-0.0972 121.77694,-0.15099 123.36052,-1.18863 z"
     id="path18" />
</svg>
