<?xml version="1.0" encoding="UTF-8" standalone="no"?>
<svg
   xmlns:dc="http://purl.org/dc/elements/1.1/"
   xmlns:cc="http://creativecommons.org/ns#"
   xmlns:rdf="http://www.w3.org/1999/02/22-rdf-syntax-ns#"
   xmlns:svg="http://www.w3.org/2000/svg"
   xmlns="http://www.w3.org/2000/svg"
   xmlns:sodipodi="http://sodipodi.sourceforge.net/DTD/sodipodi-0.dtd"
   xmlns:inkscape="http://www.inkscape.org/namespaces/inkscape"
   viewBox="0 0 576 512"
   version="1.1"
   id="svg4"
   sodipodi:docname="venus-mars.svg"
   inkscape:version="1.0.1 (3bc2e813f5, 2020-09-07)">
  <metadata
     id="metadata10">
    <rdf:RDF>
      <cc:Work
         rdf:about="">
        <dc:format>image/svg+xml</dc:format>
        <dc:type
           rdf:resource="http://purl.org/dc/dcmitype/StillImage" />
      </cc:Work>
    </rdf:RDF>
  </metadata>
  <defs
     id="defs8" />
  <sodipodi:namedview
     pagecolor="#ffffff"
     bordercolor="#666666"
     borderopacity="1"
     objecttolerance="10"
     gridtolerance="10"
     guidetolerance="10"
     inkscape:pageopacity="0"
     inkscape:pageshadow="2"
     inkscape:window-width="703"
     inkscape:window-height="480"
     id="namedview6"
     showgrid="false"
     inkscape:zoom="1.3964844"
     inkscape:cx="288"
     inkscape:cy="256"
     inkscape:window-x="0"
     inkscape:window-y="0"
     inkscape:window-maximized="0"
     inkscape:current-layer="svg4" />
  <path
     d="M564 0h-79c-10.7 0-16 12.9-8.5 20.5l16.9 16.9-48.7 48.7C422.5 72.1 396.2 64 368 64c-33.7 0-64.6 11.6-89.2 30.9 14 16.7 25 36 32.1 57.1 14.5-14.8 34.7-24 57.1-24 44.1 0 80 35.9 80 80s-35.9 80-80 80c-22.3 0-42.6-9.2-57.1-24-7.1 21.1-18 40.4-32.1 57.1 24.5 19.4 55.5 30.9 89.2 30.9 79.5 0 144-64.5 144-144 0-28.2-8.1-54.5-22.1-76.7l48.7-48.7 16.9 16.9c2.4 2.4 5.4 3.5 8.4 3.5 6.2 0 12.1-4.8 12.1-12V12c0-6.6-5.4-12-12-12zM144 64C64.5 64 0 128.5 0 208c0 68.5 47.9 125.9 112 140.4V400H76c-6.6 0-12 5.4-12 12v40c0 6.6 5.4 12 12 12h36v36c0 6.6 5.4 12 12 12h40c6.6 0 12-5.4 12-12v-36h36c6.6 0 12-5.4 12-12v-40c0-6.6-5.4-12-12-12h-36v-51.6c64.1-14.6 112-71.9 112-140.4 0-79.5-64.5-144-144-144zm0 224c-44.1 0-80-35.9-80-80s35.9-80 80-80 80 35.9 80 80-35.9 80-80 80z"
     id="path2"
     style="fill:#ffffff" />
</svg>
